<?xml version="1.0" encoding="utf-8"?>
<!-- Generator: Adobe Illustrator 21.1.0, SVG Export Plug-In . SVG Version: 6.00 Build 0)  -->
<svg version="1.1" id="Layer_1" xmlns="http://www.w3.org/2000/svg" xmlns:xlink="http://www.w3.org/1999/xlink" x="0px" y="0px"
	 viewBox="0 0 30.7 30.7" style="enable-background:new 0 0 30.7 30.7;" xml:space="preserve">
<style type="text/css">
	.st0{fill:#E96124;}
</style>
<path class="st0" d="M15.2,24.7c-3.4,0-6.1-1.3-6.1-2.9s2.6-2.9,6.1-2.9s6.1,1.3,6.1,2.9S18.6,24.7,15.2,24.7z M15.2,19.4
	c-3,0-5.5,1.1-5.5,2.4s2.5,2.4,5.5,2.4s5.5-1.1,5.5-2.4C20.7,20.5,18.2,19.4,15.2,19.4z M30.1,24.5h-7.8c-0.1,0-0.2-0.1-0.3-0.1
	c-0.1-0.1-0.1-0.2,0-0.3l2-2.6c0-0.3-0.1-0.4-0.1-0.7c-0.9-2.3-4.5-3.9-8.7-3.9h-0.1c-4.3,0-7.9,1.7-8.7,4c-0.1,0.2-0.1,0.6-0.2,0.9
	l1.9,2.4c0.1,0.1,0.1,0.2,0,0.3c-0.1,0.1-0.1,0.1-0.3,0.1H0.3c-0.1,0-0.3-0.1-0.3-0.3v-9.6c0-1.9,1.6-3.8,4.5-5.1
	c2.9-1.3,6.6-2,10.6-2s7.8,0.7,10.6,2c2.9,1.4,4.5,3.1,4.5,5.1v9.6C30.4,24.3,30.3,24.5,30.1,24.5z M22.9,23.9h6.9v-9l-2.2,2.9l0,0
	l-2.9,3.8l0,0L22.9,23.9z M0.6,23.9h6.6l-1.5-2l0,0l-1.6-2.1l0,0L2.8,18l0,0l-1.3-1.8l0,0l-0.9-1.1C0.6,15.1,0.6,23.9,0.6,23.9z
	 M4.6,19.4L5.8,21c0.1-0.1,0.1-0.3,0.1-0.4c0.4-1.4,1.8-2.6,3.6-3.4l-0.6-1.6C6.4,16.5,4.7,17.9,4.6,19.4z M20.9,17.2
	c1.8,0.8,3.1,1.9,3.6,3.2c0.1,0.1,0.1,0.2,0.1,0.3l1.1-1.5c-0.1-1.5-1.7-2.9-4.3-3.6L20.9,17.2z M3.3,17.7l0.9,1.1
	c0.4-1.5,2.1-2.9,4.6-3.7l-0.6-1.6C5.3,14.5,3.3,16,3.3,17.7z M21.8,15c2.4,0.8,4.1,2.1,4.5,3.6l0.8-1c-0.1-1.6-1.9-3.1-4.7-4.1
	L21.8,15z M2,16L2.8,17c0.5-1.7,2.4-3.1,5.1-4.1l-0.6-1.6C4.1,12.4,2.1,14,2,16z M15.6,16.1c1.8,0,3.4,0.4,4.9,0.9l0.6-1.6
	c-1.6-0.4-3.4-0.7-5.4-0.8L15.6,16.1L15.6,16.1z M9.5,15.5l0.6,1.5c1.4-0.5,3.1-0.9,4.9-0.9v-1.5C13,14.6,11.1,15,9.5,15.5z
	 M22.6,12.9c2.7,0.9,4.6,2.4,5,4l0.9-1.1c-0.1-1.9-2.1-3.5-5.2-4.6L22.6,12.9z M0.7,14.2l0.8,1.1c0.4-1.9,2.5-3.5,5.6-4.6L6.5,9.4
	C5.9,9.5,5.3,9.7,4.8,10C2.3,11.2,0.9,12.6,0.7,14.2z M23.4,10.7c3,1,5.1,2.6,5.5,4.4l0.9-1.1c-0.3-1.5-1.7-2.9-4.1-4
	c-0.5-0.2-1.1-0.4-1.6-0.6L23.4,10.7z M8.7,13.3l0.6,1.6C11,14.4,12.9,14,15,14v-1.6C12.6,12.4,10.5,12.7,8.7,13.3z M15.6,14
	c2.1,0,4,0.3,5.6,0.8l0.6-1.6c-1.8-0.6-4-0.9-6.3-0.9V14L15.6,14z M7.8,11.1l0.6,1.6c1.9-0.6,4.1-0.9,6.5-0.9V10
	C12.3,10.1,9.8,10.5,7.8,11.1z M15.6,11.8c2.4,0,4.6,0.4,6.5,0.9l0.6-1.7c-2.1-0.6-4.5-1-7.1-1V11.8z M7.1,9.2l0.6,1.4
	c2.1-0.6,4.6-1.1,7.4-1.1V8C12.1,8,9.3,8.5,7.1,9.2z M15.6,9.5c2.7,0,5.3,0.4,7.4,1.1l0.5-1.4C21.1,8.5,18.3,8,15.6,8V9.5z"/>
</svg>
