<?xml version="1.0" encoding="utf-8"?>
<!-- Generator: Adobe Illustrator 21.1.0, SVG Export Plug-In . SVG Version: 6.00 Build 0)  -->
<svg version="1.1" id="Layer_1" xmlns="http://www.w3.org/2000/svg" xmlns:xlink="http://www.w3.org/1999/xlink" x="0px" y="0px"
	 viewBox="0 0 28 28.1" style="enable-background:new 0 0 28 28.1;" xml:space="preserve">
<style type="text/css">
	.st0{fill:#E96124;}
</style>
<g>
	<g>
		<g>
			<path class="st0" d="M25.9,2.2c-1.3-1.3-3-2-4.9-2.2c-1.7-0.1-3.5,0.3-5.2,1.1c-0.2,0.1-0.3,0.4-0.2,0.6l0,0
				C15.7,2,15.9,2,16.1,1.9c1.6-0.8,3.2-1.1,4.8-1c1.7,0.1,3.2,0.8,4.4,1.9c3,3,2.4,8.5-1.3,12.2c-3.7,3.7-9.2,4.3-12.2,1.3
				c-1.4-1.4-2.1-3.5-1.9-5.8c0.2-2.3,1.3-4.6,3.2-6.4c0.5-0.5,1-0.9,1.6-1.3c0.2-0.1,0.2-0.4,0.1-0.6C14.6,2,14.4,2,14.2,2.1
				C13.6,2.5,13,3,12.5,3.5c-1.9,1.9-3.2,4.4-3.4,6.9c-0.2,2.4,0.4,4.6,1.8,6.2l-4.2,4.2c-0.2-0.2-0.4-0.3-0.7-0.3
				c-0.3,0-0.5,0.1-0.7,0.3L2.1,24c-0.2,0.2-0.2,0.4,0,0.6c0.2,0.2,0.4,0.2,0.6,0l3.2-3.2c0,0,0.1,0,0.1,0c0,0,0.1,0,0.1,0L6.7,22
				c0.1,0.1,0.1,0.2,0,0.2l-5,5c0,0-0.1,0-0.1,0c0,0-0.1,0-0.1,0l-0.6-0.6c-0.1-0.1-0.1-0.2,0-0.2l0.5-0.5c0.2-0.2,0.2-0.4,0-0.6
				s-0.4-0.2-0.6,0l-0.5,0.5c-0.4,0.4-0.4,1,0,1.4l0.6,0.6C1,28,1.3,28.1,1.5,28.1c0.3,0,0.6-0.1,0.8-0.3l5-5c0.4-0.4,0.4-1,0-1.4
				l4.2-4.2c1.4,1.2,3.2,1.9,5.2,1.9c0.3,0,0.6,0,0.9,0c2.5-0.2,5-1.5,6.9-3.4c1.9-1.9,3.2-4.4,3.4-6.9C28.2,6.2,27.5,3.9,25.9,2.2z
				"/>
		</g>
	</g>
	<g>
		<g>
			<path class="st0" d="M24.4,3.7c-1.2-1.2-2.9-1.7-4.8-1.5c-2,0.2-4,1.2-5.7,2.8c-1.6,1.6-2.6,3.6-2.8,5.7
				c-0.2,1.9,0.4,3.6,1.5,4.8c1,1,2.5,1.6,4.1,1.6c0.2,0,0.5,0,0.7,0c2-0.2,4-1.2,5.7-2.8c1.6-1.6,2.6-3.6,2.8-5.7
				C26.1,6.6,25.6,4.9,24.4,3.7z M24.1,4.6c0.4,0.5,0.7,1,0.8,1.6L23.7,5L24.1,4.6z M14.6,9.6l1.7-1.7l1.7,1.7l-1.7,1.7L14.6,9.6z
				 M15.7,11.8L14,13.5l-1.7-1.7l1.7-1.7L15.7,11.8z M16.9,7.3l1.7-1.7l1.7,1.7L18.5,9L16.9,7.3z M18.5,10.2l1.7,1.7l-1.7,1.7
				l-1.7-1.7L18.5,10.2z M19.1,9.6l1.7-1.7l1.7,1.7l-1.7,1.7L19.1,9.6z M21.4,7.3l1.7-1.7l1.7,1.7L23.1,9L21.4,7.3z M23.5,4
				l-0.4,0.4l-1.2-1.2C22.5,3.4,23,3.6,23.5,4z M20.8,3.3L22.5,5l-1.7,1.7L19.1,5L20.8,3.3z M19.7,3c0.1,0,0.2,0,0.3,0l-1.4,1.4
				l-0.9-0.9C18.3,3.2,19,3.1,19.7,3z M16.8,3.9L17.9,5l-1.7,1.7l-1.4-1.4C15.5,4.7,16.1,4.2,16.8,3.9z M14.2,5.9l1.4,1.4L14,9
				l-1.1-1.1C13.2,7.1,13.7,6.5,14.2,5.9z M12,10.7c0.1-0.7,0.2-1.4,0.5-2l0.9,0.9L12,11C12,10.9,12,10.8,12,10.7z M13,14.5
				c-0.4-0.5-0.7-1-0.8-1.6l1.2,1.2L13,14.5z M13.6,15.1l0.4-0.4l1.2,1.2C14.6,15.8,14.1,15.5,13.6,15.1z M16.3,15.8l-1.7-1.7
				l1.7-1.7l1.7,1.7L16.3,15.8z M17.4,16.1c-0.1,0-0.2,0-0.3,0l1.4-1.4l0.9,0.9C18.8,15.9,18.1,16.1,17.4,16.1z M20.3,15.3l-1.1-1.1
				l1.7-1.7l1.4,1.4C21.6,14.4,21,14.9,20.3,15.3z M22.8,13.3l-1.4-1.4l1.7-1.7l1.1,1.1C23.9,12,23.4,12.6,22.8,13.3z M25.1,8.4
				c-0.1,0.7-0.2,1.4-0.5,2l-0.9-0.9l1.4-1.4C25.1,8.2,25.1,8.3,25.1,8.4z"/>
		</g>
	</g>
	<g>
		<g>
			<path class="st0" d="M8.1,1.9h-1L1.7,0C1.6,0,1.5,0,1.4,0.1C1.2,0.2,1.2,0.3,1.2,0.4v7.5c0,0.1,0.1,0.3,0.2,0.3
				c0.1,0.1,0.2,0.1,0.2,0.1c0,0,0.1,0,0.1,0l5.4-1.9h1c1.3,0,2.3-1,2.3-2.3C10.4,2.9,9.4,1.9,8.1,1.9z M2,1l4.7,1.6v1.1H2V1z
				 M6.7,5.7L2,7.3V4.6h4.7V5.7z M8.1,5.6H7.5V2.7h0.6c0.8,0,1.4,0.6,1.4,1.4C9.6,5,8.9,5.6,8.1,5.6z"/>
		</g>
	</g>
</g>
</svg>
