<?xml version="1.0" encoding="utf-8"?>
<!-- Generator: Adobe Illustrator 21.0.0, SVG Export Plug-In . SVG Version: 6.00 Build 0)  -->
<svg version="1.1" id="Layer_1" xmlns="http://www.w3.org/2000/svg" xmlns:xlink="http://www.w3.org/1999/xlink" x="0px" y="0px"
	 viewBox="0 0 32 31.7" style="enable-background:new 0 0 32 31.7;" xml:space="preserve">
<style type="text/css">
	.st0{fill:#E96124;}
</style>
<g>
	<path class="st0" d="M31.5,12.1c0-0.2-0.2-0.4-0.5-0.4H5.8c-0.2,0-0.4,0.2-0.5,0.4c-0.1,0.4-0.1,0.7-0.2,1.1
		c-0.7,0.1-1.4,0.3-2,0.7c-1.6,0.9-2.6,2.5-2.9,4.5c-0.3,1.8,0.1,3.8,1.1,5.6c1.4,2.6,4,4.2,6.5,4.3c0.8,1.3,1.6,2.4,2.6,3.3
		c0.1,0.1,0.2,0.1,0.3,0.1h15.4c0.1,0,0.3,0,0.3-0.1c1.7-1.6,3.1-3.8,4-6.3c1-2.5,1.5-5.4,1.5-8.3C32,15.3,31.8,13.7,31.5,12.1z
		 M5.9,24.3c-0.7-0.5-1.4-1.2-1.9-2c-0.6-1.1-0.9-2.3-0.7-3.4c0.2-1,0.6-1.7,1.3-2.1c0,0,0.1,0,0.1-0.1c0,0.1,0,0.2,0,0.3
		C4.8,19.5,5.2,22,5.9,24.3z M2,23.4c-0.9-1.6-1.2-3.3-1-4.9c0.3-1.7,1.1-3,2.5-3.8c0.4-0.2,0.9-0.4,1.4-0.5
		c-0.1,0.5-0.1,0.9-0.1,1.4c-0.2,0.1-0.4,0.2-0.6,0.3c-1,0.5-1.6,1.5-1.8,2.8c-0.2,1.3,0.1,2.8,0.8,4.1c0.8,1.4,1.9,2.4,3.2,2.9
		c0.2,0.5,0.5,1.1,0.7,1.6C5.2,26.9,3.2,25.5,2,23.4z M25.9,30.7h-15C7.7,27.5,5.8,22.4,5.8,17c0-1.5,0.1-2.9,0.4-4.4h6.4v4.8h-1.8
		c-0.3,0-0.5,0.2-0.5,0.5v5.9c0,0.3,0.2,0.5,0.5,0.5h4.7c0.3,0,0.5-0.2,0.5-0.5v-5.9c0-0.3-0.2-0.5-0.5-0.5h-1.8v-4.8h17
		c0.3,1.4,0.4,2.9,0.4,4.4C31,22.4,29.1,27.5,25.9,30.7z M14.9,18.4v4.9h-3.7v-4.9H14.9z"/>
	<path class="st0" d="M13.8,9.8c0,0.3,0.2,0.5,0.5,0.5c0.3,0,0.5-0.2,0.5-0.5c0-0.7,0.2-1,0.3-1.3c0.2-0.4,0.4-0.9,0.4-1.8
		s-0.2-1.4-0.4-1.8c-0.2-0.4-0.3-0.7-0.3-1.3c0-0.7,0.2-1,0.3-1.3c0.2-0.4,0.4-0.9,0.4-1.8C15.5,0.2,15.3,0,15,0s-0.5,0.2-0.5,0.5
		c0,0.7-0.2,1-0.3,1.3c-0.2,0.4-0.4,0.9-0.4,1.8c0,0.9,0.2,1.4,0.4,1.8c0.2,0.4,0.3,0.7,0.3,1.3s-0.2,1-0.3,1.3
		C14,8.5,13.8,8.9,13.8,9.8z"/>
	<path class="st0" d="M17.5,9.8c0,0.3,0.2,0.5,0.5,0.5s0.5-0.2,0.5-0.5c0-0.7,0.2-1,0.3-1.3c0.2-0.4,0.4-0.9,0.4-1.8
		S19,5.4,18.8,4.9c-0.2-0.4-0.3-0.7-0.3-1.3c0-0.7,0.2-1,0.3-1.3c0.2-0.4,0.4-0.9,0.4-1.8C19.3,0.2,19,0,18.8,0s-0.5,0.2-0.5,0.5
		c0,0.7-0.2,1-0.3,1.3c-0.2,0.4-0.4,0.9-0.4,1.8c0,0.9,0.2,1.4,0.4,1.8c0.2,0.4,0.3,0.7,0.3,1.3s-0.2,1-0.3,1.3
		C17.7,8.5,17.5,8.9,17.5,9.8z"/>
	<path class="st0" d="M21.2,9.8c0,0.3,0.2,0.5,0.5,0.5c0.3,0,0.5-0.2,0.5-0.5c0-0.7,0.2-1,0.3-1.3C22.7,8.1,23,7.6,23,6.7
		s-0.2-1.4-0.4-1.8c-0.2-0.4-0.3-0.7-0.3-1.3c0-0.7,0.2-1,0.3-1.3C22.7,1.8,23,1.4,23,0.5C23,0.2,22.7,0,22.5,0
		C22.2,0,22,0.2,22,0.5c0,0.7-0.2,1-0.3,1.3c-0.2,0.4-0.4,0.9-0.4,1.8c0,0.9,0.2,1.4,0.4,1.8C21.8,5.7,22,6,22,6.7s-0.2,1-0.3,1.3
		C21.5,8.5,21.2,8.9,21.2,9.8z"/>
</g>
</svg>
