<?xml version="1.0" encoding="utf-8"?>
<!-- Generator: Adobe Illustrator 21.1.0, SVG Export Plug-In . SVG Version: 6.00 Build 0)  -->
<svg version="1.1" id="Layer_1" xmlns="http://www.w3.org/2000/svg" xmlns:xlink="http://www.w3.org/1999/xlink" x="0px" y="0px"
	 viewBox="0 0 29.8 32.4" style="enable-background:new 0 0 29.8 32.4;" xml:space="preserve">
<style type="text/css">
	.st0{fill:#E96124;}
</style>
<g>
	<path class="st0" d="M3,13.8c-1.4,0-2.4-1.1-2.4-2.5S1.6,8.8,3,8.8c1.3,0,2.4,1.1,2.4,2.5S4.3,13.8,3,13.8z M3,9.7
		c-0.8,0-1.5,0.7-1.5,1.5c0,0.9,0.7,1.5,1.5,1.5s1.5-0.7,1.5-1.5C4.5,10.4,3.8,9.7,3,9.7z"/>
	<path class="st0" d="M14.7,4.5c-1.2,0-2.2-1-2.2-2.2c0-1.2,1-2.3,2.2-2.3c1.2,0,2.2,1,2.2,2.3C16.9,3.5,15.9,4.5,14.7,4.5z M14.7,1
		c-0.7,0-1.2,0.6-1.2,1.3s0.6,1.3,1.2,1.3C15.4,3.5,16,3,16,2.3S15.4,1,14.7,1z"/>
	<path class="st0" d="M14.8,24c-1.8,0-3.2-1.5-3.2-3.2c0-1.8,1.4-3.2,3.2-3.2c1.7,0,3.2,1.5,3.2,3.2C18,22.6,16.5,24,14.8,24z
		 M14.8,18.5c-1.2,0-2.2,1-2.2,2.3c0,1.3,1,2.3,2.2,2.3c1.2,0,2.2-1,2.2-2.3C17,19.5,16,18.5,14.8,18.5z"/>
	<path class="st0" d="M26.8,13.8c-1.3,0-2.4-1.1-2.4-2.5s1.1-2.5,2.4-2.5c1.4,0,2.5,1.1,2.5,2.5S28.2,13.8,26.8,13.8z M26.8,9.7
		c-0.8,0-1.5,0.7-1.5,1.5c0,0.9,0.7,1.5,1.5,1.5c0.8,0,1.5-0.7,1.5-1.5C28.3,10.4,27.7,9.7,26.8,9.7z"/>
	<path class="st0" d="M25.5,32.4h-6.1c-0.3,0-0.5-0.2-0.5-0.5v-5.4l-8.5,0l0,5.4c0,0.3-0.2,0.5-0.5,0.5H4c-1.3,0-2.2-0.4-2.6-1.1
		c-0.8-1.5,0.4-3.6,0.5-3.9l4.2-9.1C6.3,18.1,6.4,18,6.6,18H10c0,0,0.1,0,0.1,0c0.1,0,0.1-0.1,0.1-0.2c0-0.1-0.1-0.2-0.2-0.2H5.9
		L2,25.2c-0.1,0.2-0.2,0.3-0.4,0.3H1.1c-0.4,0-0.7-0.2-0.8-0.3C0,24.8,0,24.4,0,24.3l0-8.8c0,0,0-0.1,0-0.1c0.1-0.4,0.5-0.6,0.7-0.6
		h2.6l0,0c0.1,0,0.5,0,0.8,0.4l1.3,1.1l3.4-6.6C9,9.5,9.1,9.4,9.3,9.4H11V5.7c0,0,0-0.1,0-0.1C11.2,5.2,11.5,5,11.8,5h1.5h0
		c0.1,0,0.5,0,0.8,0.4c0,0,0,0.1,0.1,0.1l0.6,0.9l0.6-0.9c0,0,0-0.1,0.1-0.1C15.7,5,16.1,5,16.2,5h1.3c0.7,0,0.9,0.5,0.9,0.8v3.6
		h1.9c0.2,0,0.3,0.1,0.4,0.3l3.4,6.6l1.6-1.2c0.3-0.3,0.7-0.3,0.8-0.3h2.6c0.3,0,0.6,0.2,0.7,0.6c0,0,0,0.1,0,0.1v8.8
		c0,0,0,0.5-0.3,0.8c-0.1,0.1-0.4,0.3-0.8,0.3H28c-0.2,0-0.3-0.1-0.4-0.3l-3.9-7.6h-4.1c-0.1,0-0.2,0.1-0.2,0.2
		c0,0.1,0.1,0.2,0.1,0.2c0,0,0.1,0,0.1,0h3.4c0.2,0,0.4,0.1,0.4,0.3l4.2,9.2c0.1,0.2,1.3,2.4,0.5,3.8C27.7,32.1,26.8,32.4,25.5,32.4
		z M19.9,31.5h5.6c0.9,0,1.5-0.2,1.8-0.7c0.5-0.8-0.2-2.4-0.5-2.9L22.6,19h-3c0,0-0.1,0-0.1,0c-0.6,0-1.2-0.5-1.2-1.2
		s0.5-1.2,1.2-1.2h3.6L20,10.3h-2.1c-0.3,0-0.5-0.2-0.5-0.5V5.9h-1.2c0,0,0,0-0.1,0l-0.9,1.5c-0.1,0.1-0.2,0.2-0.4,0.2l0,0
		c-0.2,0-0.3-0.1-0.4-0.2L13.4,6c-0.1,0-0.1,0-0.1,0H12v3.9c0,0.3-0.2,0.5-0.5,0.5H9.6l-3.2,6.3H10c0.6,0,1.2,0.5,1.2,1.2
		S10.7,19,10,19c0,0-0.1,0-0.1,0H6.9l-4.1,8.9c-0.3,0.6-1,2.1-0.5,3c0.3,0.4,0.8,0.7,1.8,0.7h5.4l0-5.1c0,0,0-0.1,0-0.1
		c0.1-0.4,0.5-0.6,0.7-0.6H19c0.7,0,0.9,0.5,0.9,0.8L19.9,31.5L19.9,31.5z M28.3,24.5h0.5c0.1,0,0.1,0,0.1,0c0,0,0-0.1,0-0.1l0-8.7
		h-2.4c0,0-0.1,0-0.1,0.1c0,0,0,0-0.1,0.1l-1.8,1.3L28.3,24.5z M1,24.5C1,24.5,1,24.5,1,24.5l0.3,0l3.8-7.4l-1.5-1.3
		c-0.1-0.1-0.2-0.1-0.2-0.1H1v8.6C1,24.4,1,24.5,1,24.5L1,24.5z"/>
</g>
</svg>
