<?xml version="1.0" encoding="utf-8"?>
<!-- Generator: Adobe Illustrator 16.0.0, SVG Export Plug-In . SVG Version: 6.00 Build 0)  -->
<!DOCTYPE svg PUBLIC "-//W3C//DTD SVG 1.1//EN" "http://www.w3.org/Graphics/SVG/1.1/DTD/svg11.dtd">
<svg version="1.1" id="Layer_1" xmlns="http://www.w3.org/2000/svg" xmlns:xlink="http://www.w3.org/1999/xlink" x="0px" y="0px"
	 width="800px" height="800px" viewBox="0 0 800 800" enable-background="new 0 0 800 800" xml:space="preserve">
<g id="Clocks_1_">
	<path id="Clocks" fill="#E96124" d="M773.539,330.627c-8.02-9.624-19.283-15.127-30.93-15.127h-17.507v-14.138
		c0-25.39-22.059-46.066-49.163-46.066h-23.083v-26.081c0-12.287-5.231-24.268-14.36-32.891c-18.123-17.137-49.473-17.137-67.607,0
		c-9.129,8.636-14.36,20.615-14.36,32.891v122.435H243.46V229.215c0-12.275-5.225-24.255-14.354-32.879
		c-18.13-17.136-49.479-17.136-67.607,0c-9.13,8.624-14.367,20.604-14.367,32.879v26.105h-25.889
		c-12.171,0-23.682,4.392-32.428,12.374c-8.847,8.13-13.93,19.468-13.93,31.102V315.5H57.545c-11.702,0-23.021,5.527-31.052,15.176
		c-7.613,9.153-11.813,21.183-11.813,33.854v70.52c0,12.682,4.201,24.711,11.825,33.853c8.032,9.647,19.351,15.175,31.041,15.175
		h17.339v16.716c0,11.635,5.083,22.985,13.954,31.127c8.722,7.971,20.233,12.363,32.404,12.363h25.889v26.104
		c0,12.276,5.237,24.255,14.354,32.866c9.067,8.562,21.071,13.275,33.81,13.275c12.738,0,24.742-4.714,33.81-13.275
		c9.129-8.624,14.354-20.603,14.354-32.866V447.953h313.068v122.434c0,12.276,5.231,24.255,14.36,32.866
		c9.056,8.562,21.072,13.275,33.804,13.275s24.749-4.714,33.804-13.275c9.129-8.624,14.36-20.603,14.36-32.866v-26.104h23.083
		c27.104,0,49.163-20.653,49.163-46.067v-14.139h17.507c11.646,0,22.91-5.502,30.93-15.1c7.6-9.13,11.781-21.098,11.781-33.72
		v-70.913C785.309,351.711,781.139,339.731,773.539,330.627z M57.545,459.994c-4.589,0-9.043-2.307-12.535-6.49
		c-3.973-4.761-6.249-11.497-6.249-18.455v-70.52c0-6.958,2.276-13.67,6.249-18.432c3.491-4.195,7.945-6.515,12.535-6.515h17.339
		v120.411H57.545z M121.243,520.2c-6.058,0-11.943-2.197-16.12-6.021c-3.979-3.651-6.156-8.401-6.156-13.387v-28.757V327.542
		v-28.746c0-4.983,2.178-9.745,6.132-13.373c4.213-3.837,10.085-6.045,16.144-6.045h25.889V520.2H121.243z M219.378,570.387
		c0,5.762-2.417,11.215-6.804,15.36c-9.03,8.525-25.513,8.525-34.543,0c-4.398-4.146-6.816-9.611-6.816-15.36V532.24V267.337
		v-38.122c0-5.773,2.418-11.227,6.804-15.372c4.516-4.269,10.813-6.712,17.278-6.712s12.762,2.443,17.278,6.712
		c4.387,4.146,6.804,9.611,6.804,15.372V363.69v72.246V570.387z M243.46,423.871v-48.165h313.068v48.165H243.46z M628.774,570.387
		c0,5.762-2.418,11.215-6.811,15.36c-9.03,8.525-25.514,8.525-34.544,0c-4.392-4.146-6.811-9.611-6.811-15.36V435.912v-72.247
		v-134.45c0-5.761,2.419-11.215,6.811-15.359c4.515-4.257,10.809-6.699,17.272-6.699c6.465,0,12.757,2.442,17.271,6.699
		c4.393,4.133,6.811,9.599,6.811,15.359v38.146v264.904V570.387z M701.021,498.215c0,12.127-11.252,21.985-25.082,21.985h-23.083
		V279.378h23.083c13.83,0,25.082,9.869,25.082,21.984v26.18v144.493V498.215z M761.226,435.246c0,6.909-2.269,13.57-6.193,18.308
		c-3.466,4.157-7.884,6.44-12.423,6.44h-17.507V339.583h17.507c4.539,0,8.957,2.295,12.423,6.466
		c3.948,4.712,6.193,11.386,6.193,18.295V435.246z"/>
</g>
</svg>
