<?xml version="1.0" encoding="utf-8"?>
<!-- Generator: Adobe Illustrator 21.1.0, SVG Export Plug-In . SVG Version: 6.00 Build 0)  -->
<svg version="1.1" id="Layer_1" xmlns="http://www.w3.org/2000/svg" xmlns:xlink="http://www.w3.org/1999/xlink" x="0px" y="0px"
	 viewBox="0 0 29.4 31.3" style="enable-background:new 0 0 29.4 31.3;" xml:space="preserve">
<style type="text/css">
	.st0{fill:#E96124;stroke:#E96124;stroke-width:0.3;stroke-miterlimit:10;}
</style>
<g>
	<path class="st0" d="M22.4,25.7c0,0.3,0.1,0.7,0.2,0.9c0,0,0,0,0,0c0.2-0.1,0.4-0.1,0.7-0.2c-0.1-0.2-0.2-0.5-0.2-0.7
		c0-0.6,0.5-1.1,1.1-1.2c0-0.2,0-0.5,0-0.7C23.2,23.9,22.4,24.7,22.4,25.7z"/>
	<path class="st0" d="M22.1,20.8L22.1,20.8c1.1-0.2,2.9-0.9,3-1l0,0l0,0c1.4-0.8,2.4-2.2,3.2-3.9c0.5-1.2,0.7-2.2,0.7-2.4
		c0.9-3.5-0.3-6.9-0.4-7.3l0,0c-0.5-1.4-1.3-2.6-2.4-3.6c-1.1-1-2.3-1.7-3.8-2.1c-0.4-0.1-0.7-0.2-1.1-0.2c-2.4-0.4-4.6-0.1-6.5,0.9
		c0,0,0,0,0,0c0,0,0,0,0,0c-1.9-1-4.1-1.3-6.5-0.9C7.8,0.4,7.5,0.5,7.1,0.6C5.6,1,4.4,1.7,3.3,2.6c-1.1,1-1.9,2.2-2.4,3.6l0,0
		C0.7,6.7-0.4,10,0.5,13.6c0,0.2,0.2,1.1,0.7,2.4C1.9,17.6,3,19,4.3,19.8l0,0l0,0c0.1,0,1.9,0.8,2.9,1l0,0l0,0c0,0,1.5,0.1,2.3,1.4
		l0,0c0,0,0,0.1,0.1,0.2H2.5v0.7h7.6c0.2,0.4,0.4,1.1,0.5,1.8h-5v0.7h5.1c0,0.1,0.2,1.7,0.2,1.7H0.2V28h10.8l0.3,2.9l0.2,0.1
		c0,0,0.8,0.4,2,0.2c0,0,0,0,0,0c0.1,0,0.2,0,0.3-0.1c0.1,0,0.2,0,0.3,0c0.2,0,0.5-0.1,0.7-0.2c0.2,0.1,0.4,0.1,0.7,0.2
		c0.1,0,0.2,0,0.3,0c0.1,0,0.2,0.1,0.3,0.1c0,0,0,0,0,0c1.2,0.2,2-0.2,2-0.2l0.2-0.1l0.5-5l0,0c0.2-2.3,1.1-3.6,1.1-3.6l0,0
		C20.6,21,22.1,20.8,22.1,20.8L22.1,20.8z M21.1,1c0.3,0.1,0.7,0.1,1,0.2c2.7,0.7,4.8,2.6,5.7,5.2l0,0c0.1,0.2,1.2,3.5,0.4,6.9l0,0
		l0,0c0,0-0.1,0.4-0.2,1L9.9,11.2c0.1-0.6,0.1-1,0.1-1l0,0l0,0c0.4-3.6,2.7-6.3,2.8-6.4c0.7-0.9,1.5-1.5,2.3-1.9
		C16.8,0.9,18.9,0.6,21.1,1z M1.2,13.4L1.2,13.4L1.2,13.4c-0.9-3.5,0.3-6.8,0.4-7l0,0c1-2.6,3-4.5,5.7-5.2C7.6,1.1,8,1.1,8.3,1
		c2.1-0.4,4-0.1,5.7,0.7c-0.6,0.4-1.2,1-1.8,1.7l0,0C12,3.6,9.7,6.4,9.3,10.1c0,0.2-0.2,1.1-0.2,2.4c0,0.2,0,0.4,0,0.6l-7.8,1.4
		C1.2,13.9,1.2,13.5,1.2,13.4z M10.2,21.8c-0.9-1.5-2.6-1.7-2.8-1.7c-0.9-0.2-2.5-0.8-2.8-0.9c-1.5-1-2.4-2.5-2.9-3.6
		c-0.1-0.2-0.2-0.4-0.2-0.6l7.7-1.4c0.2,1.4,0.7,2.6,1.5,3.6l0,0l0,0c0.1,0.1,1.5,1.4,2.4,1.9l0,0l0,0c0,0,0.5,0.3,1,0.8
		c-0.2,0.3-0.4,0.7-0.5,1.1c0,0,0,0.1-0.1,0.3l-3.4,0.6C10.3,21.9,10.2,21.9,10.2,21.8z M14.7,25.1L14.7,25.1L14.7,25.1
		c-0.7-2.2-0.3-3.8-0.2-3.8l0,0c0.1-0.2,0.1-0.5,0.2-0.7c0.1,0.2,0.2,0.4,0.2,0.7l0,0C15,21.4,15.4,22.9,14.7,25.1z M11.2,24.2
		c-0.1-0.6-0.3-1.1-0.5-1.5l3-0.5c0,0.4,0,0.9,0,1.5L11.2,24.2z M13.6,30.4L13.6,30.4L13.6,30.4c-0.2,0-0.3,0.1-0.4,0.1
		c-0.7,0.1-1.2,0-1.4-0.1l-0.4-4.6c0-0.3-0.1-0.7-0.1-1l2.5-0.4c0.1,0.3,0.1,0.6,0.2,0.9l0.3,1.2L13.4,30l0.1,0.1
		c0,0,0.1,0.1,0.2,0.2C13.7,30.4,13.7,30.4,13.6,30.4z M18,25.8l-0.4,4.6c-0.3,0.1-0.8,0.2-1.4,0.1c-0.1,0-0.2,0-0.3-0.1l0,0l0,0
		c-0.1,0-0.2,0-0.3,0c-0.7-0.1-1.1-0.4-1.3-0.5l1.2-4.5c0.1-0.3,0.2-0.6,0.2-0.9l2.5,0.4C18.1,25.1,18,25.5,18,25.8z M18.3,24.2
		l-2.6-0.5c0.1-0.6,0.1-1.1,0-1.5l3,0.5C18.6,23.1,18.4,23.6,18.3,24.2z M19.2,21.8c0,0-0.1,0.1-0.1,0.2l-3.4-0.6
		c0-0.1,0-0.2-0.1-0.3c-0.4-1.7-1.9-2.4-2.1-2.5c-0.8-0.5-2.1-1.6-2.3-1.8c-1.1-1.4-1.4-3.2-1.4-4.4c0-0.2,0-0.4,0-0.6l18,3.2
		c-0.1,0.2-0.1,0.4-0.2,0.6c-0.5,1.1-1.3,2.6-2.9,3.6c-0.2,0.1-1.8,0.7-2.8,0.9C21.8,20.2,20.1,20.4,19.2,21.8z"/>
	<path class="st0" d="M15.3,27.2l-0.7,2.4l0.3,0.1c0,0,0.4,0.1,0.8,0.2c0.2,0,0.5,0.1,0.7,0.1l0-0.7c-0.3,0-0.7-0.1-0.9-0.1l0.5-1.8
		L15.3,27.2z"/>
	<path class="st0" d="M25.8,28.8c1.1-0.6,1.9-1.7,1.9-3.1c0-1.9-1.5-3.4-3.4-3.4c-1.9,0-3.4,1.5-3.4,3.4c0,1.4,0.8,2.5,1.9,3.1h-2.7
		v0.7h9.1v-0.7L25.8,28.8L25.8,28.8z M21.6,25.7c0-1.5,1.2-2.7,2.7-2.7c1.5,0,2.7,1.2,2.7,2.7c0,1.5-1.2,2.7-2.7,2.7
		C22.9,28.5,21.6,27.2,21.6,25.7z"/>
</g>
</svg>
