<svg id="Layer_1" data-name="Layer 1" xmlns="http://www.w3.org/2000/svg" viewBox="0 0 77.55 85"><defs><style>.cls-1{fill:#f37021;}</style></defs><path class="cls-1" d="M76.28,79.12a1.55,1.55,0,0,1-1.61.89Q38.79,80,2.89,80a2.81,2.81,0,0,1-.29,0,1.18,1.18,0,1,1,0-2.34c2.29,0,4.59,0,6.88,0h2.46L11.36,77a8.46,8.46,0,0,1,2.81-13.17,43.39,43.39,0,0,1,5.44-1.68c2.43-.72,4.86-1.44,7.3-2.12a.68.68,0,0,0,.59-.81c0-1.1,0-2.19,0-3.38H19.24a5.47,5.47,0,0,1-5.31-3.24,5.39,5.39,0,0,1,.77-6.09c2.84-3.55,5.72-7.06,8.48-10.65a9.57,9.57,0,0,1,4.57-3.27c1.59-.56,3.29-.84,4.94-1.24l.45-.11a25.91,25.91,0,0,1-3.52-9.63c-.45-3.65.53-6.65,3.6-8.85a.92.92,0,0,0,.31-.66c0-.63,0-1.27,0-1.9a5.16,5.16,0,0,1,3.94-5A2.14,2.14,0,0,0,37.89,5h1.76A13.07,13.07,0,0,1,41,5.5a5.19,5.19,0,0,1,3,5.27,3,3,0,0,0,1.23,2.75c2.45,2,3.1,4.79,2.72,7.86a23.79,23.79,0,0,1-3.57,9.84c.9.14,1.79.26,2.66.43a13.09,13.09,0,0,1,5.29,2.23,14.47,14.47,0,0,1,2.49,2.63A1,1,0,0,1,54.52,38,1.09,1.09,0,0,1,53,37.9a1.61,1.61,0,0,1-.24-.28,8.75,8.75,0,0,0-6.84-3.72c-3.34-.31-6.72-.24-10.08-.32a17,17,0,0,0-6.49.85,9.78,9.78,0,0,0-4.64,3.26c-2.61,3.44-5.36,6.78-8.07,10.14A3.33,3.33,0,0,0,16,51.57a3.29,3.29,0,0,0,3.27,1.91H36.08c1.41,0,1.51-.11,1.52-1.5V42l-.21-.13a11.33,11.33,0,0,0-1.09,1.51,11.82,11.82,0,0,0-1,4.69c-.07,1.35-.36,1.65-1.73,1.65h-9.3c-.61,0-1.2,0-1.51-.66s0-1.15.42-1.65c1.69-2.12,3.35-4.26,5-6.39a5.19,5.19,0,0,1,.37-.45,1.12,1.12,0,0,1,1.53-.13A1.08,1.08,0,0,1,30.37,42c-.46.66-1,1.27-1.47,1.92a1,1,0,0,0-.24.64c.17.94.4,1.86.62,2.83,1.12,0,2.21,0,3.31,0,.16,0,.37-.4.44-.65a33.71,33.71,0,0,1,1.16-4.28,4.72,4.72,0,0,1,5.66-3.06,4.31,4.31,0,0,1,2.93,2,11,11,0,0,1,1.7,5.23c.06.63.26.84.89.8.94,0,1.9,0,2.89,0,.22-1,.45-1.93.63-2.88a.91.91,0,0,0-.23-.58c-.45-.61-.94-1.18-1.39-1.79a1.15,1.15,0,0,1,.16-1.69,1.17,1.17,0,0,1,1.68.27c1.85,2.33,3.71,4.66,5.5,7a1.16,1.16,0,0,1-.92,1.92c-3.36.05-6.73,0-10.1,0-.88,0-1.19-.45-1.32-1.33a42.7,42.7,0,0,0-.9-4.64,7.49,7.49,0,0,0-1.14-1.9L40,42a2.66,2.66,0,0,0-.07.39q0,4.91,0,9.81c0,1.11.17,1.29,1.27,1.29q8.64,0,17.28,0a3.14,3.14,0,0,0,3-1.88,3.18,3.18,0,0,0-.39-3.51c-.67-.87-1.37-1.71-2.05-2.58a1.23,1.23,0,0,1,0-1.82c.58-.48,1.24-.36,1.83.36S62.3,45.78,63,46.68a5.66,5.66,0,0,1-4.46,9.13c-2.52,0-5,0-7.55,0h-.91c0,1.29,0,2.52,0,3.76,0,.14.35.34.57.41,3.43,1,6.86,2,10.32,3a9.74,9.74,0,0,1,5.2,2.91A8.53,8.53,0,0,1,66,77.15l-.4.46c.29,0,.49,0,.7,0,2.78,0,5.56,0,8.35,0a1.54,1.54,0,0,1,1.6.89ZM56.09,77.5a36.87,36.87,0,0,0,4.83,0,6.1,6.1,0,0,0,.58-11.85Q55.25,63.81,49,62c-1.17-.35-1.31-.56-1.31-1.77V55.82H41.3a2.6,2.6,0,0,1-1.09-.08,3,3,0,0,0-2.89,0,2.6,2.6,0,0,1-1.09.08H29.87v3.69H41a3,3,0,0,1,.94.11,1,1,0,0,1,.74,1.2,1.08,1.08,0,0,1-1,1,5.93,5.93,0,0,1-.73,0H29.49a4.91,4.91,0,0,0-1.15.16L17.81,65.09a14.75,14.75,0,0,0-2.9,1,5.78,5.78,0,0,0-3.22,5.79,5.91,5.91,0,0,0,3.86,5.33c1.89.78,3.88.37,5.9.46,0-1.55-.05-3,0-4.42,0-.82-.17-1.2-1-1.35A1.1,1.1,0,0,1,19.77,70a1.85,1.85,0,0,1,1.4-.27c3.11.73,6.23,1.45,9.29,2.33,1.41.41,2.59.45,3.67-.61a.92.92,0,0,1,.25-.15,5.07,5.07,0,0,1,6.83,1.63.71.71,0,0,0,.95.34c3.54-.9,7.09-1.78,10.64-2.67,1.25-.31,2.5-.65,3.76-.94a1.17,1.17,0,1,1,.63,2.25,3.8,3.8,0,0,0-.7.21c-.17.1-.38.31-.38.48C56.08,74.21,56.09,75.86,56.09,77.5ZM45.86,19.92A5.51,5.51,0,0,0,41.3,20c-.87.45-1.69,1-2.52,1.49a7.14,7.14,0,0,1-6.35.91,1.7,1.7,0,0,0-.28,0,2.8,2.8,0,0,0,.08.65c.76,2,1.4,4.05,2.34,6,.85,1.74,2.54,2.34,4.43,2.26a4.43,4.43,0,0,0,4.14-2.52,26.83,26.83,0,0,0,1.65-4C45.26,23.17,45.51,21.56,45.86,19.92ZM28.26,77.46l.08.13H53.7V72.77l-.69.15L41.45,75.8c-1.08.27-1.47.06-1.86-1a2.77,2.77,0,0,0-4.17-1.5c-2.07,1.17-4.17,2.32-6.25,3.48C28.85,77,28.56,77.25,28.26,77.46ZM45.2,17.29c-.23-.4-.35-.66-.5-.89a7.29,7.29,0,0,0-8.25-2.63,6.28,6.28,0,0,0-4.53,5A.91.91,0,0,0,32.57,20,5.29,5.29,0,0,0,38,19.2C40.11,17.73,42.35,16.68,45.2,17.29Zm-3.65-5.86a3.27,3.27,0,0,0-1.24-3.64A2.85,2.85,0,0,0,37,7.94a3.19,3.19,0,0,0-1,3.5A10.34,10.34,0,0,1,41.55,11.43ZM23.83,77.64a14.41,14.41,0,0,0,1.48,0,.66.66,0,0,0,.43-.37,4.6,4.6,0,0,1,2.41-2.53l1.15-.62-5.47-1.35Z"/></svg>